<mxfile host="app.diagrams.net" modified="2023-10-07T18:06:51.165Z" agent="Mozilla/5.0 (Windows NT 10.0; Win64; x64) AppleWebKit/537.36 (KHTML, like Gecko) Chrome/117.0.0.0 Safari/537.36" etag="Qbg0_f3HNeqoJUBKySr0" version="22.0.4" type="device">
  <diagram name="Страница — 1" id="ZCq6h6P0zEXbTGPvVUHU">
    <mxGraphModel dx="2117" dy="1737" grid="1" gridSize="10" guides="1" tooltips="1" connect="1" arrows="1" fold="1" page="1" pageScale="1" pageWidth="827" pageHeight="1169" math="0" shadow="0">
      <root>
        <mxCell id="0" />
        <mxCell id="1" parent="0" />
        <mxCell id="e3u21Hywk7B6BTD9VeC_-1" value="КЛИЕНТ" style="rounded=1;whiteSpace=wrap;html=1;" vertex="1" parent="1">
          <mxGeometry x="200" y="40" width="120" height="40" as="geometry" />
        </mxCell>
        <mxCell id="e3u21Hywk7B6BTD9VeC_-2" value="УЧЁТ" style="rhombus;whiteSpace=wrap;html=1;" vertex="1" parent="1">
          <mxGeometry x="200" y="140" width="120" height="80" as="geometry" />
        </mxCell>
        <mxCell id="e3u21Hywk7B6BTD9VeC_-3" value="ФИНАНСЫ" style="rounded=1;whiteSpace=wrap;html=1;" vertex="1" parent="1">
          <mxGeometry x="200" y="280" width="120" height="40" as="geometry" />
        </mxCell>
        <mxCell id="e3u21Hywk7B6BTD9VeC_-4" value="" style="endArrow=none;html=1;rounded=0;entryX=0.5;entryY=1;entryDx=0;entryDy=0;exitX=0.5;exitY=0;exitDx=0;exitDy=0;" edge="1" parent="1" source="e3u21Hywk7B6BTD9VeC_-2" target="e3u21Hywk7B6BTD9VeC_-1">
          <mxGeometry width="50" height="50" relative="1" as="geometry">
            <mxPoint x="180" y="150" as="sourcePoint" />
            <mxPoint x="230" y="100" as="targetPoint" />
          </mxGeometry>
        </mxCell>
        <mxCell id="e3u21Hywk7B6BTD9VeC_-5" value="" style="endArrow=none;html=1;rounded=0;exitX=0.5;exitY=1;exitDx=0;exitDy=0;entryX=0.5;entryY=0;entryDx=0;entryDy=0;" edge="1" parent="1" source="e3u21Hywk7B6BTD9VeC_-2" target="e3u21Hywk7B6BTD9VeC_-3">
          <mxGeometry width="50" height="50" relative="1" as="geometry">
            <mxPoint x="390" y="300" as="sourcePoint" />
            <mxPoint x="440" y="250" as="targetPoint" />
          </mxGeometry>
        </mxCell>
        <mxCell id="e3u21Hywk7B6BTD9VeC_-6" value="&lt;u&gt;логин&lt;/u&gt;" style="ellipse;whiteSpace=wrap;html=1;" vertex="1" parent="1">
          <mxGeometry x="330" y="-10" width="120" height="40" as="geometry" />
        </mxCell>
        <mxCell id="e3u21Hywk7B6BTD9VeC_-7" value="пароль" style="ellipse;whiteSpace=wrap;html=1;" vertex="1" parent="1">
          <mxGeometry x="360" y="40" width="120" height="40" as="geometry" />
        </mxCell>
        <mxCell id="e3u21Hywk7B6BTD9VeC_-8" value="ФИО" style="ellipse;whiteSpace=wrap;html=1;" vertex="1" parent="1">
          <mxGeometry x="200" y="-40" width="120" height="40" as="geometry" />
        </mxCell>
        <mxCell id="e3u21Hywk7B6BTD9VeC_-9" value="&lt;u&gt;эл. почта&lt;/u&gt;" style="ellipse;whiteSpace=wrap;html=1;" vertex="1" parent="1">
          <mxGeometry x="70" y="-10" width="120" height="40" as="geometry" />
        </mxCell>
        <mxCell id="e3u21Hywk7B6BTD9VeC_-10" value="pin-код" style="ellipse;whiteSpace=wrap;html=1;" vertex="1" parent="1">
          <mxGeometry x="40" y="40" width="120" height="40" as="geometry" />
        </mxCell>
        <mxCell id="e3u21Hywk7B6BTD9VeC_-11" value="" style="endArrow=none;html=1;rounded=0;entryX=0;entryY=0.5;entryDx=0;entryDy=0;exitX=1;exitY=0.5;exitDx=0;exitDy=0;" edge="1" parent="1" source="e3u21Hywk7B6BTD9VeC_-1" target="e3u21Hywk7B6BTD9VeC_-7">
          <mxGeometry width="50" height="50" relative="1" as="geometry">
            <mxPoint x="390" y="190" as="sourcePoint" />
            <mxPoint x="440" y="140" as="targetPoint" />
          </mxGeometry>
        </mxCell>
        <mxCell id="e3u21Hywk7B6BTD9VeC_-12" value="" style="endArrow=none;html=1;rounded=0;entryX=0;entryY=1;entryDx=0;entryDy=0;exitX=0.75;exitY=0;exitDx=0;exitDy=0;" edge="1" parent="1" source="e3u21Hywk7B6BTD9VeC_-1" target="e3u21Hywk7B6BTD9VeC_-6">
          <mxGeometry width="50" height="50" relative="1" as="geometry">
            <mxPoint x="390" y="190" as="sourcePoint" />
            <mxPoint x="440" y="140" as="targetPoint" />
          </mxGeometry>
        </mxCell>
        <mxCell id="e3u21Hywk7B6BTD9VeC_-13" value="" style="endArrow=none;html=1;rounded=0;exitX=0.5;exitY=1;exitDx=0;exitDy=0;entryX=0.5;entryY=0;entryDx=0;entryDy=0;" edge="1" parent="1" source="e3u21Hywk7B6BTD9VeC_-8" target="e3u21Hywk7B6BTD9VeC_-1">
          <mxGeometry width="50" height="50" relative="1" as="geometry">
            <mxPoint x="390" y="190" as="sourcePoint" />
            <mxPoint x="440" y="140" as="targetPoint" />
          </mxGeometry>
        </mxCell>
        <mxCell id="e3u21Hywk7B6BTD9VeC_-14" value="" style="endArrow=none;html=1;rounded=0;entryX=1;entryY=1;entryDx=0;entryDy=0;exitX=0.25;exitY=0;exitDx=0;exitDy=0;" edge="1" parent="1" source="e3u21Hywk7B6BTD9VeC_-1" target="e3u21Hywk7B6BTD9VeC_-9">
          <mxGeometry width="50" height="50" relative="1" as="geometry">
            <mxPoint x="390" y="190" as="sourcePoint" />
            <mxPoint x="440" y="140" as="targetPoint" />
          </mxGeometry>
        </mxCell>
        <mxCell id="e3u21Hywk7B6BTD9VeC_-15" value="" style="endArrow=none;html=1;rounded=0;exitX=1;exitY=0.5;exitDx=0;exitDy=0;entryX=0;entryY=0.5;entryDx=0;entryDy=0;" edge="1" parent="1" source="e3u21Hywk7B6BTD9VeC_-10" target="e3u21Hywk7B6BTD9VeC_-1">
          <mxGeometry width="50" height="50" relative="1" as="geometry">
            <mxPoint x="390" y="190" as="sourcePoint" />
            <mxPoint x="440" y="140" as="targetPoint" />
          </mxGeometry>
        </mxCell>
        <mxCell id="e3u21Hywk7B6BTD9VeC_-16" value="&lt;u&gt;номер_счёта&lt;/u&gt;" style="ellipse;whiteSpace=wrap;html=1;" vertex="1" parent="1">
          <mxGeometry x="90" y="220" width="130" height="40" as="geometry" />
        </mxCell>
        <mxCell id="e3u21Hywk7B6BTD9VeC_-17" value="наименование_счёта" style="ellipse;whiteSpace=wrap;html=1;" vertex="1" parent="1">
          <mxGeometry x="360" y="260" width="130" height="40" as="geometry" />
        </mxCell>
        <mxCell id="e3u21Hywk7B6BTD9VeC_-20" value="баланс" style="ellipse;whiteSpace=wrap;html=1;" vertex="1" parent="1">
          <mxGeometry x="340" y="320" width="120" height="40" as="geometry" />
        </mxCell>
        <mxCell id="e3u21Hywk7B6BTD9VeC_-21" value="тип_счёта" style="ellipse;whiteSpace=wrap;html=1;" vertex="1" parent="1">
          <mxGeometry x="40" y="280" width="120" height="40" as="geometry" />
        </mxCell>
        <mxCell id="e3u21Hywk7B6BTD9VeC_-22" value="тип_транзакции" style="ellipse;whiteSpace=wrap;html=1;" vertex="1" parent="1">
          <mxGeometry x="-115" y="160" width="120" height="40" as="geometry" />
        </mxCell>
        <mxCell id="e3u21Hywk7B6BTD9VeC_-24" value="" style="endArrow=none;html=1;rounded=0;exitX=1;exitY=1;exitDx=0;exitDy=0;entryX=0.25;entryY=0;entryDx=0;entryDy=0;" edge="1" parent="1" source="e3u21Hywk7B6BTD9VeC_-16" target="e3u21Hywk7B6BTD9VeC_-3">
          <mxGeometry width="50" height="50" relative="1" as="geometry">
            <mxPoint x="280" y="230" as="sourcePoint" />
            <mxPoint x="330" y="180" as="targetPoint" />
          </mxGeometry>
        </mxCell>
        <mxCell id="e3u21Hywk7B6BTD9VeC_-26" value="наименование" style="ellipse;whiteSpace=wrap;html=1;" vertex="1" parent="1">
          <mxGeometry x="-45" y="90" width="120" height="40" as="geometry" />
        </mxCell>
        <mxCell id="e3u21Hywk7B6BTD9VeC_-27" value="" style="endArrow=none;html=1;rounded=0;entryX=1;entryY=0.5;entryDx=0;entryDy=0;exitX=0;exitY=0.5;exitDx=0;exitDy=0;" edge="1" parent="1" target="e3u21Hywk7B6BTD9VeC_-22">
          <mxGeometry width="50" height="50" relative="1" as="geometry">
            <mxPoint x="45" y="180" as="sourcePoint" />
            <mxPoint x="175" y="180" as="targetPoint" />
          </mxGeometry>
        </mxCell>
        <mxCell id="e3u21Hywk7B6BTD9VeC_-28" value="" style="endArrow=none;html=1;rounded=0;entryX=0;entryY=1;entryDx=0;entryDy=0;exitX=0.5;exitY=0;exitDx=0;exitDy=0;" edge="1" parent="1" source="e3u21Hywk7B6BTD9VeC_-22" target="e3u21Hywk7B6BTD9VeC_-26">
          <mxGeometry width="50" height="50" relative="1" as="geometry">
            <mxPoint x="55" y="190" as="sourcePoint" />
            <mxPoint x="15" y="190" as="targetPoint" />
          </mxGeometry>
        </mxCell>
        <mxCell id="e3u21Hywk7B6BTD9VeC_-29" value="" style="endArrow=none;html=1;rounded=0;entryX=1;entryY=0.5;entryDx=0;entryDy=0;exitX=0;exitY=0.5;exitDx=0;exitDy=0;" edge="1" parent="1" source="e3u21Hywk7B6BTD9VeC_-3" target="e3u21Hywk7B6BTD9VeC_-21">
          <mxGeometry width="50" height="50" relative="1" as="geometry">
            <mxPoint x="280" y="310" as="sourcePoint" />
            <mxPoint x="330" y="260" as="targetPoint" />
          </mxGeometry>
        </mxCell>
        <mxCell id="e3u21Hywk7B6BTD9VeC_-30" value="" style="endArrow=none;html=1;rounded=0;entryX=0;entryY=0.5;entryDx=0;entryDy=0;exitX=1;exitY=0.5;exitDx=0;exitDy=0;" edge="1" parent="1" source="e3u21Hywk7B6BTD9VeC_-3" target="e3u21Hywk7B6BTD9VeC_-17">
          <mxGeometry width="50" height="50" relative="1" as="geometry">
            <mxPoint x="280" y="230" as="sourcePoint" />
            <mxPoint x="330" y="180" as="targetPoint" />
          </mxGeometry>
        </mxCell>
        <mxCell id="e3u21Hywk7B6BTD9VeC_-31" value="" style="endArrow=none;html=1;rounded=0;entryX=0;entryY=0;entryDx=0;entryDy=0;exitX=1;exitY=0.75;exitDx=0;exitDy=0;" edge="1" parent="1" source="e3u21Hywk7B6BTD9VeC_-3" target="e3u21Hywk7B6BTD9VeC_-20">
          <mxGeometry width="50" height="50" relative="1" as="geometry">
            <mxPoint x="280" y="230" as="sourcePoint" />
            <mxPoint x="330" y="180" as="targetPoint" />
          </mxGeometry>
        </mxCell>
        <mxCell id="e3u21Hywk7B6BTD9VeC_-34" value="&lt;u&gt;код_типа&lt;br&gt;транзакции&lt;/u&gt;" style="ellipse;whiteSpace=wrap;html=1;" vertex="1" parent="1">
          <mxGeometry x="-45" y="230" width="120" height="40" as="geometry" />
        </mxCell>
        <mxCell id="e3u21Hywk7B6BTD9VeC_-35" value="" style="endArrow=none;html=1;rounded=0;entryX=0.5;entryY=1;entryDx=0;entryDy=0;exitX=0;exitY=0;exitDx=0;exitDy=0;" edge="1" parent="1" source="e3u21Hywk7B6BTD9VeC_-34" target="e3u21Hywk7B6BTD9VeC_-22">
          <mxGeometry width="50" height="50" relative="1" as="geometry">
            <mxPoint x="125" y="230" as="sourcePoint" />
            <mxPoint x="175" y="180" as="targetPoint" />
          </mxGeometry>
        </mxCell>
        <mxCell id="e3u21Hywk7B6BTD9VeC_-36" value="1" style="text;html=1;strokeColor=none;fillColor=none;align=center;verticalAlign=middle;whiteSpace=wrap;rounded=0;" vertex="1" parent="1">
          <mxGeometry x="260" y="80" width="20" height="30" as="geometry" />
        </mxCell>
        <mxCell id="e3u21Hywk7B6BTD9VeC_-37" value="m" style="text;html=1;strokeColor=none;fillColor=none;align=center;verticalAlign=middle;whiteSpace=wrap;rounded=0;" vertex="1" parent="1">
          <mxGeometry x="260" y="250" width="20" height="30" as="geometry" />
        </mxCell>
        <mxCell id="e3u21Hywk7B6BTD9VeC_-38" value="категории" style="ellipse;whiteSpace=wrap;html=1;" vertex="1" parent="1">
          <mxGeometry x="360" y="120" width="120" height="40" as="geometry" />
        </mxCell>
        <mxCell id="e3u21Hywk7B6BTD9VeC_-39" value="" style="endArrow=none;html=1;rounded=0;entryX=1;entryY=0;entryDx=0;entryDy=0;exitX=0;exitY=0.5;exitDx=0;exitDy=0;" edge="1" parent="1" source="e3u21Hywk7B6BTD9VeC_-38" target="e3u21Hywk7B6BTD9VeC_-2">
          <mxGeometry width="50" height="50" relative="1" as="geometry">
            <mxPoint x="360" y="210" as="sourcePoint" />
            <mxPoint x="410" y="160" as="targetPoint" />
          </mxGeometry>
        </mxCell>
        <mxCell id="e3u21Hywk7B6BTD9VeC_-40" value="&lt;u&gt;код_категории&lt;/u&gt;" style="ellipse;whiteSpace=wrap;html=1;" vertex="1" parent="1">
          <mxGeometry x="480" y="70" width="120" height="40" as="geometry" />
        </mxCell>
        <mxCell id="e3u21Hywk7B6BTD9VeC_-41" value="наименование" style="ellipse;whiteSpace=wrap;html=1;" vertex="1" parent="1">
          <mxGeometry x="480" y="160" width="120" height="40" as="geometry" />
        </mxCell>
        <mxCell id="e3u21Hywk7B6BTD9VeC_-43" value="" style="endArrow=none;html=1;rounded=0;entryX=0;entryY=0.5;entryDx=0;entryDy=0;exitX=0.5;exitY=0;exitDx=0;exitDy=0;" edge="1" parent="1" source="e3u21Hywk7B6BTD9VeC_-38" target="e3u21Hywk7B6BTD9VeC_-40">
          <mxGeometry width="50" height="50" relative="1" as="geometry">
            <mxPoint x="360" y="170" as="sourcePoint" />
            <mxPoint x="410" y="120" as="targetPoint" />
          </mxGeometry>
        </mxCell>
        <mxCell id="e3u21Hywk7B6BTD9VeC_-45" value="наименование" style="ellipse;whiteSpace=wrap;html=1;" vertex="1" parent="1">
          <mxGeometry x="-100" y="320" width="120" height="40" as="geometry" />
        </mxCell>
        <mxCell id="e3u21Hywk7B6BTD9VeC_-46" value="" style="endArrow=none;html=1;rounded=0;entryX=0;entryY=1;entryDx=0;entryDy=0;exitX=1;exitY=0.5;exitDx=0;exitDy=0;" edge="1" parent="1" source="e3u21Hywk7B6BTD9VeC_-45" target="e3u21Hywk7B6BTD9VeC_-21">
          <mxGeometry width="50" height="50" relative="1" as="geometry">
            <mxPoint x="360" y="360" as="sourcePoint" />
            <mxPoint x="410" y="310" as="targetPoint" />
          </mxGeometry>
        </mxCell>
        <mxCell id="e3u21Hywk7B6BTD9VeC_-47" value="" style="endArrow=none;html=1;rounded=0;entryX=0;entryY=0.5;entryDx=0;entryDy=0;exitX=0.5;exitY=1;exitDx=0;exitDy=0;" edge="1" parent="1" source="e3u21Hywk7B6BTD9VeC_-38" target="e3u21Hywk7B6BTD9VeC_-41">
          <mxGeometry width="50" height="50" relative="1" as="geometry">
            <mxPoint x="360" y="250" as="sourcePoint" />
            <mxPoint x="410" y="200" as="targetPoint" />
          </mxGeometry>
        </mxCell>
        <mxCell id="e3u21Hywk7B6BTD9VeC_-48" value="журнал_транзакций" style="ellipse;whiteSpace=wrap;html=1;" vertex="1" parent="1">
          <mxGeometry x="360" y="200" width="120" height="40" as="geometry" />
        </mxCell>
        <mxCell id="e3u21Hywk7B6BTD9VeC_-49" value="" style="endArrow=none;html=1;rounded=0;exitX=0;exitY=0.5;exitDx=0;exitDy=0;entryX=1;entryY=1;entryDx=0;entryDy=0;" edge="1" parent="1" source="e3u21Hywk7B6BTD9VeC_-48" target="e3u21Hywk7B6BTD9VeC_-2">
          <mxGeometry width="50" height="50" relative="1" as="geometry">
            <mxPoint x="270" y="210" as="sourcePoint" />
            <mxPoint x="320" y="160" as="targetPoint" />
          </mxGeometry>
        </mxCell>
        <mxCell id="e3u21Hywk7B6BTD9VeC_-50" value="задолженность" style="ellipse;whiteSpace=wrap;html=1;" vertex="1" parent="1">
          <mxGeometry x="70" y="340" width="120" height="40" as="geometry" />
        </mxCell>
        <mxCell id="e3u21Hywk7B6BTD9VeC_-51" value="одолжение" style="ellipse;whiteSpace=wrap;html=1;" vertex="1" parent="1">
          <mxGeometry x="240" y="360" width="120" height="40" as="geometry" />
        </mxCell>
        <mxCell id="e3u21Hywk7B6BTD9VeC_-52" value="" style="endArrow=none;html=1;rounded=0;exitX=1;exitY=0;exitDx=0;exitDy=0;entryX=0.25;entryY=1;entryDx=0;entryDy=0;" edge="1" parent="1" source="e3u21Hywk7B6BTD9VeC_-50" target="e3u21Hywk7B6BTD9VeC_-3">
          <mxGeometry width="50" height="50" relative="1" as="geometry">
            <mxPoint x="270" y="300" as="sourcePoint" />
            <mxPoint x="320" y="250" as="targetPoint" />
          </mxGeometry>
        </mxCell>
        <mxCell id="e3u21Hywk7B6BTD9VeC_-53" value="" style="endArrow=none;html=1;rounded=0;exitX=0.5;exitY=0;exitDx=0;exitDy=0;entryX=0.75;entryY=1;entryDx=0;entryDy=0;" edge="1" parent="1" source="e3u21Hywk7B6BTD9VeC_-51" target="e3u21Hywk7B6BTD9VeC_-3">
          <mxGeometry width="50" height="50" relative="1" as="geometry">
            <mxPoint x="270" y="300" as="sourcePoint" />
            <mxPoint x="320" y="250" as="targetPoint" />
          </mxGeometry>
        </mxCell>
        <mxCell id="e3u21Hywk7B6BTD9VeC_-54" value="транзакция" style="ellipse;whiteSpace=wrap;html=1;" vertex="1" parent="1">
          <mxGeometry x="40" y="160" width="120" height="40" as="geometry" />
        </mxCell>
        <mxCell id="e3u21Hywk7B6BTD9VeC_-55" value="" style="endArrow=none;html=1;rounded=0;entryX=0;entryY=0.5;entryDx=0;entryDy=0;exitX=1;exitY=0.5;exitDx=0;exitDy=0;" edge="1" parent="1" source="e3u21Hywk7B6BTD9VeC_-54" target="e3u21Hywk7B6BTD9VeC_-2">
          <mxGeometry width="50" height="50" relative="1" as="geometry">
            <mxPoint x="210" y="220" as="sourcePoint" />
            <mxPoint x="260" y="170" as="targetPoint" />
          </mxGeometry>
        </mxCell>
      </root>
    </mxGraphModel>
  </diagram>
</mxfile>
